<svg width="39" height="39" viewBox="0 0 39 39" fill="none" xmlns="http://www.w3.org/2000/svg">
<circle cx="19.5" cy="19.5" r="19.5" fill="#E21A0F"/>
<path d="M25.2592 18.3204L21.2836 14.0425C21.1759 13.9346 21.0896 13.8043 21.0296 13.6596C20.9697 13.5149 20.9375 13.3588 20.9349 13.2004C20.9323 13.042 20.9594 12.8847 21.0145 12.7378C21.0697 12.5909 21.1517 12.4575 21.2558 12.3455C21.3599 12.2335 21.4839 12.1452 21.6204 12.0858C21.7569 12.0265 21.9031 11.9974 22.0503 12.0002C22.1975 12.003 22.3426 12.0376 22.4771 12.1021C22.6116 12.1666 22.7326 12.2595 22.833 12.3754L28.6794 18.6664C28.8847 18.8876 29 19.1874 29 19.5C29 19.8126 28.8847 20.1124 28.6794 20.3336L22.833 26.6246C22.7326 26.7405 22.6116 26.8334 22.4771 26.8979C22.3426 26.9624 22.1975 26.997 22.0503 26.9998C21.9031 27.0026 21.7569 26.9735 21.6204 26.9142C21.4839 26.8548 21.3599 26.7665 21.2558 26.6545C21.1517 26.5425 21.0697 26.4091 21.0145 26.2622C20.9594 26.1153 20.9323 25.958 20.9349 25.7996C20.9375 25.6412 20.9697 25.4851 21.0296 25.3404C21.0896 25.1957 21.1759 25.0654 21.2837 24.9575L25.2592 20.6796L11.0962 20.6796C10.8055 20.6796 10.5267 20.5553 10.3211 20.3341C10.1155 20.1129 10 19.8128 10 19.5C10 19.1872 10.1155 18.8871 10.3211 18.6659C10.5267 18.4447 10.8055 18.3204 11.0962 18.3204L25.2592 18.3204Z" fill="white"/>
</svg>
