<svg width="1271" height="162" viewBox="0 0 1271 162" fill="none" xmlns="http://www.w3.org/2000/svg">
<path d="M4.224 120.208H18.432V32.656H4.224V30.864H45.44V32.656H31.232V120.208H45.44V122H4.224V120.208ZM53.465 120.208H67.673V32.656H53.465V30.864H94.681V32.656H80.473V120.208H103.257C110.766 120.208 116.654 117.861 120.921 113.168C125.188 108.475 128.302 102.075 130.265 93.968H131.673V122H53.465V120.208ZM141.09 120.208H155.298V32.656H141.09V30.864H214.306V53.008H212.898C211.789 49.68 210.594 46.7787 209.314 44.304C208.034 41.744 206.498 39.6107 204.706 37.904C202.914 36.112 200.781 34.7893 198.306 33.936C195.831 33.0827 192.845 32.656 189.346 32.656H168.098V72.208H176.418C179.234 72.208 181.623 71.952 183.586 71.44C185.549 70.928 187.213 69.9893 188.578 68.624C190.029 67.1733 191.223 65.2533 192.162 62.864C193.186 60.3893 194.167 57.232 195.106 53.392H196.514V93.2H195.106C194.509 90.7253 193.869 88.336 193.186 86.032C192.589 83.728 191.693 81.68 190.498 79.888C189.389 78.096 187.853 76.688 185.89 75.664C184.013 74.5547 181.538 74 178.466 74H168.098V120.208H192.29C196.983 120.208 200.866 119.227 203.938 117.264C207.095 115.216 209.655 112.827 211.618 110.096C213.581 107.28 215.031 104.379 215.97 101.392C216.909 98.4053 217.506 95.9307 217.762 93.968H219.17V122H141.09V120.208ZM293.848 120.208C295.299 120.379 296.963 120.507 298.84 120.592C300.803 120.677 302.936 120.72 305.24 120.72C308.141 120.72 311 120.592 313.816 120.336C316.717 119.995 319.448 119.355 322.008 118.416C324.653 117.392 327.085 115.984 329.304 114.192C331.608 112.315 333.656 109.883 335.448 106.896C338.179 102.288 340.056 97.5947 341.08 92.816C342.189 87.952 342.744 82.6613 342.744 76.944C342.744 70.2027 342.104 64.1013 340.824 58.64C339.544 53.0933 337.411 48.4 334.424 44.56C331.523 40.6347 327.64 37.6053 322.776 35.472C317.912 33.3387 311.896 32.272 304.728 32.272C302.595 32.272 300.632 32.3147 298.84 32.4C297.133 32.4853 295.469 32.5707 293.848 32.656V120.208ZM266.84 120.208H281.048V32.656H266.84V30.864H290.648C291.843 30.864 293.037 30.864 294.232 30.864C295.427 30.7787 296.621 30.6933 297.816 30.608C299.011 30.608 300.205 30.608 301.4 30.608C302.595 30.5227 303.789 30.48 304.984 30.48C307.544 30.48 309.805 30.5227 311.768 30.608C313.816 30.6933 315.693 30.864 317.4 31.12C319.192 31.2907 320.856 31.5893 322.392 32.016C324.013 32.3573 325.72 32.8267 327.512 33.424C332.717 35.1307 337.197 37.4347 340.952 40.336C344.792 43.152 347.907 46.4373 350.296 50.192C352.771 53.9467 354.563 58.0427 355.672 62.48C356.867 66.9173 357.464 71.568 357.464 76.432C357.464 82.064 356.781 87.1413 355.416 91.664C354.051 96.1013 352.173 100.069 349.784 103.568C347.395 106.981 344.579 109.968 341.336 112.528C338.179 115.003 334.765 117.008 331.096 118.544C329.048 119.483 327.085 120.208 325.208 120.72C323.416 121.232 321.539 121.616 319.576 121.872C317.699 122.128 315.608 122.299 313.304 122.384C311 122.469 308.355 122.512 305.368 122.512C304.088 122.512 302.723 122.469 301.272 122.384C299.821 122.384 298.371 122.341 296.92 122.256C295.469 122.171 294.019 122.085 292.568 122C291.203 122 289.88 122 288.6 122H266.84V120.208ZM371.215 120.208H385.423V32.656H371.215V30.864H444.431V53.008H443.023C441.914 49.68 440.719 46.7787 439.439 44.304C438.159 41.744 436.623 39.6107 434.831 37.904C433.039 36.112 430.906 34.7893 428.431 33.936C425.956 33.0827 422.97 32.656 419.471 32.656H398.223V72.208H406.543C409.359 72.208 411.748 71.952 413.711 71.44C415.674 70.928 417.338 69.9893 418.703 68.624C420.154 67.1733 421.348 65.2533 422.287 62.864C423.311 60.3893 424.292 57.232 425.231 53.392H426.639V93.2H425.231C424.634 90.7253 423.994 88.336 423.311 86.032C422.714 83.728 421.818 81.68 420.623 79.888C419.514 78.096 417.978 76.688 416.015 75.664C414.138 74.5547 411.663 74 408.591 74H398.223V120.208H422.415C427.108 120.208 430.991 119.227 434.063 117.264C437.22 115.216 439.78 112.827 441.743 110.096C443.706 107.28 445.156 104.379 446.095 101.392C447.034 98.4053 447.631 95.9307 447.887 93.968H449.295V122H371.215V120.208ZM467.1 94.48H468.508C469.447 99.088 470.641 102.971 472.092 106.128C473.628 109.285 475.292 111.888 477.084 113.936C478.876 115.984 480.753 117.563 482.716 118.672C484.679 119.781 486.641 120.592 488.604 121.104C490.652 121.616 492.572 121.915 494.364 122C496.241 122.085 497.991 122.128 499.612 122.128C504.135 122.128 507.847 121.445 510.748 120.08C513.649 118.715 515.953 117.008 517.66 114.96C519.367 112.827 520.561 110.565 521.244 108.176C521.927 105.701 522.268 103.44 522.268 101.392C522.268 98.4053 521.713 95.8453 520.604 93.712C519.495 91.5787 518.087 89.7867 516.38 88.336C514.673 86.8 512.796 85.5627 510.748 84.624C508.785 83.6853 506.908 82.96 505.116 82.448L490.396 77.968C483.484 75.8347 478.236 73.0187 474.652 69.52C471.153 66.0213 469.404 61.328 469.404 55.44C469.404 51.6 470.087 48.0587 471.452 44.816C472.817 41.488 474.737 38.6293 477.212 36.24C479.687 33.8507 482.631 31.9733 486.044 30.608C489.543 29.2427 493.34 28.56 497.436 28.56C500.423 28.56 502.897 28.816 504.86 29.328C506.908 29.84 508.657 30.4373 510.108 31.12C511.559 31.7173 512.839 32.272 513.948 32.784C515.143 33.296 516.337 33.552 517.532 33.552C518.641 33.552 519.367 33.424 519.708 33.168C520.135 32.8267 520.689 32.0587 521.372 30.864H523.164V54.032H521.628C521.116 50.96 520.22 48.016 518.94 45.2C517.745 42.2987 516.167 39.7813 514.204 37.648C512.241 35.4293 509.852 33.68 507.036 32.4C504.305 31.0347 501.105 30.352 497.436 30.352C495.388 30.352 493.127 30.6507 490.652 31.248C488.177 31.76 485.873 32.6987 483.74 34.064C481.607 35.4293 479.815 37.2213 478.364 39.44C476.999 41.6587 476.316 44.4747 476.316 47.888C476.316 50.6187 476.871 52.9653 477.98 54.928C479.089 56.8053 480.497 58.4267 482.204 59.792C483.996 61.072 485.959 62.1813 488.092 63.12C490.311 63.9733 492.529 64.7413 494.748 65.424L510.236 70.288C511.857 70.8 513.905 71.4827 516.38 72.336C518.855 73.1893 521.244 74.4693 523.548 76.176C525.937 77.8827 527.943 80.144 529.564 82.96C531.271 85.776 532.124 89.36 532.124 93.712C532.124 97.7227 531.356 101.563 529.82 105.232C528.369 108.816 526.236 112.016 523.42 114.832C520.604 117.563 517.191 119.781 513.18 121.488C509.169 123.109 504.647 123.92 499.612 123.92C497.82 123.92 496.241 123.877 494.876 123.792C493.511 123.792 492.231 123.707 491.036 123.536C489.841 123.365 488.647 123.152 487.452 122.896C486.257 122.725 484.935 122.427 483.484 122C481.777 121.488 479.943 120.891 477.98 120.208C476.017 119.525 474.311 119.184 472.86 119.184C471.58 119.184 470.684 119.44 470.172 119.952C469.745 120.464 469.361 121.147 469.02 122H467.1V94.48ZM609.348 76.176C611.055 76.5173 612.847 76.7733 614.724 76.944C616.601 77.1147 618.265 77.2 619.716 77.2C626.031 77.2 630.937 75.3653 634.436 71.696C638.02 67.9413 639.812 62.3093 639.812 54.8C639.812 50.448 639.385 46.8213 638.532 43.92C637.679 41.0187 636.313 38.7147 634.436 37.008C632.644 35.216 630.255 33.9787 627.268 33.296C624.367 32.6133 620.868 32.272 616.772 32.272C615.151 32.272 613.657 32.3147 612.292 32.4C611.012 32.4853 610.031 32.5707 609.348 32.656V76.176ZM582.34 120.208H596.548V32.656H582.34V30.864H606.404C607.599 30.864 608.793 30.864 609.988 30.864C611.183 30.7787 612.377 30.6933 613.572 30.608C614.767 30.608 615.919 30.608 617.028 30.608C618.223 30.5227 619.417 30.48 620.612 30.48C625.476 30.48 629.956 31.0773 634.052 32.272C638.233 33.3813 641.817 35.0027 644.804 37.136C647.876 39.2693 650.265 41.8293 651.972 44.816C653.679 47.8027 654.532 51.1307 654.532 54.8C654.532 58.64 653.551 62.0533 651.588 65.04C649.625 68.0267 647.023 70.544 643.78 72.592C640.537 74.64 636.74 76.2187 632.388 77.328C628.121 78.4373 623.641 78.992 618.948 78.992C617.753 78.992 616.217 78.9067 614.34 78.736C612.463 78.48 610.799 78.224 609.348 77.968V120.208H623.556V122H582.34V120.208ZM665.724 120.208H679.932V32.656H665.724V30.864H706.94V32.656H692.732V120.208H706.94V122H665.724V120.208ZM713.813 120.208H728.021V32.656H713.813V30.864H741.205L784.469 100.624H784.725V32.656H770.517V30.864H800.853V32.656H786.645V123.792H784.085L730.197 37.904H729.941V120.208H744.149V122H713.813V120.208ZM807.34 120.208H821.548V32.656H807.34V30.864H880.556V53.008H879.148C878.039 49.68 876.844 46.7787 875.564 44.304C874.284 41.744 872.748 39.6107 870.956 37.904C869.164 36.112 867.031 34.7893 864.556 33.936C862.081 33.0827 859.095 32.656 855.596 32.656H834.348V72.208H842.668C845.484 72.208 847.873 71.952 849.836 71.44C851.799 70.928 853.463 69.9893 854.828 68.624C856.279 67.1733 857.473 65.2533 858.412 62.864C859.436 60.3893 860.417 57.232 861.356 53.392H862.764V93.2H861.356C860.759 90.7253 860.119 88.336 859.436 86.032C858.839 83.728 857.943 81.68 856.748 79.888C855.639 78.096 854.103 76.688 852.14 75.664C850.263 74.5547 847.788 74 844.716 74H834.348V120.208H858.54C863.233 120.208 867.116 119.227 870.188 117.264C873.345 115.216 875.905 112.827 877.868 110.096C879.831 107.28 881.281 104.379 882.22 101.392C883.159 98.4053 883.756 95.9307 884.012 93.968H885.42V122H807.34V120.208ZM903.225 94.48H904.633C905.572 99.088 906.766 102.971 908.217 106.128C909.753 109.285 911.417 111.888 913.209 113.936C915.001 115.984 916.878 117.563 918.841 118.672C920.804 119.781 922.766 120.592 924.729 121.104C926.777 121.616 928.697 121.915 930.489 122C932.366 122.085 934.116 122.128 935.737 122.128C940.26 122.128 943.972 121.445 946.873 120.08C949.774 118.715 952.078 117.008 953.785 114.96C955.492 112.827 956.686 110.565 957.369 108.176C958.052 105.701 958.393 103.44 958.393 101.392C958.393 98.4053 957.838 95.8453 956.729 93.712C955.62 91.5787 954.212 89.7867 952.505 88.336C950.798 86.8 948.921 85.5627 946.873 84.624C944.91 83.6853 943.033 82.96 941.241 82.448L926.521 77.968C919.609 75.8347 914.361 73.0187 910.777 69.52C907.278 66.0213 905.529 61.328 905.529 55.44C905.529 51.6 906.212 48.0587 907.577 44.816C908.942 41.488 910.862 38.6293 913.337 36.24C915.812 33.8507 918.756 31.9733 922.169 30.608C925.668 29.2427 929.465 28.56 933.561 28.56C936.548 28.56 939.022 28.816 940.985 29.328C943.033 29.84 944.782 30.4373 946.233 31.12C947.684 31.7173 948.964 32.272 950.073 32.784C951.268 33.296 952.462 33.552 953.657 33.552C954.766 33.552 955.492 33.424 955.833 33.168C956.26 32.8267 956.814 32.0587 957.497 30.864H959.289V54.032H957.753C957.241 50.96 956.345 48.016 955.065 45.2C953.87 42.2987 952.292 39.7813 950.329 37.648C948.366 35.4293 945.977 33.68 943.161 32.4C940.43 31.0347 937.23 30.352 933.561 30.352C931.513 30.352 929.252 30.6507 926.777 31.248C924.302 31.76 921.998 32.6987 919.865 34.064C917.732 35.4293 915.94 37.2213 914.489 39.44C913.124 41.6587 912.441 44.4747 912.441 47.888C912.441 50.6187 912.996 52.9653 914.105 54.928C915.214 56.8053 916.622 58.4267 918.329 59.792C920.121 61.072 922.084 62.1813 924.217 63.12C926.436 63.9733 928.654 64.7413 930.873 65.424L946.361 70.288C947.982 70.8 950.03 71.4827 952.505 72.336C954.98 73.1893 957.369 74.4693 959.673 76.176C962.062 77.8827 964.068 80.144 965.689 82.96C967.396 85.776 968.249 89.36 968.249 93.712C968.249 97.7227 967.481 101.563 965.945 105.232C964.494 108.816 962.361 112.016 959.545 114.832C956.729 117.563 953.316 119.781 949.305 121.488C945.294 123.109 940.772 123.92 935.737 123.92C933.945 123.92 932.366 123.877 931.001 123.792C929.636 123.792 928.356 123.707 927.161 123.536C925.966 123.365 924.772 123.152 923.577 122.896C922.382 122.725 921.06 122.427 919.609 122C917.902 121.488 916.068 120.891 914.105 120.208C912.142 119.525 910.436 119.184 908.985 119.184C907.705 119.184 906.809 119.44 906.297 119.952C905.87 120.464 905.486 121.147 905.145 122H903.225V94.48Z" fill="black"/>
<path d="M1064.98 86.568H1058.46C1062.94 92.456 1068.12 97.128 1075.8 100.776C1075.1 101.416 1074.58 102.184 1074.07 103.144C1073.75 103.72 1073.56 103.976 1073.24 103.976C1072.98 103.976 1072.73 103.848 1072.22 103.592C1065.94 99.944 1060.5 94.632 1056.73 88.424C1056.73 97 1057.05 105.576 1057.05 108.904C1057.05 109.352 1056.98 109.416 1056.47 109.416H1053.59C1053.14 109.416 1053.08 109.352 1053.08 108.904C1053.08 105.576 1053.34 97.192 1053.4 88.68C1049.82 94.76 1044.38 100.008 1037.66 103.912C1037.27 104.168 1037.02 104.296 1036.76 104.296C1036.44 104.296 1036.25 103.976 1035.8 103.272C1035.22 102.376 1034.71 101.864 1034.07 101.416C1041.62 97.64 1047.06 92.904 1051.35 86.568H1046.87C1040.54 86.568 1038.42 86.696 1038.1 86.696C1037.66 86.696 1037.59 86.632 1037.59 86.184V83.688C1037.59 83.24 1037.66 83.176 1038.1 83.176C1038.42 83.176 1040.54 83.304 1046.87 83.304H1053.21V83.048C1053.21 80.936 1053.21 79.08 1052.89 76.968C1054.42 77.032 1055.64 77.16 1056.86 77.288C1057.43 77.352 1057.62 77.608 1057.62 77.864C1057.62 78.312 1057.3 78.696 1057.18 79.144C1056.92 79.912 1056.92 81.064 1056.92 83.048V83.304H1064.98C1071.32 83.304 1073.43 83.176 1073.75 83.176C1074.26 83.176 1074.33 83.24 1074.33 83.688V86.184C1074.33 86.632 1074.26 86.696 1073.75 86.696C1073.43 86.696 1071.32 86.568 1064.98 86.568ZM1036.63 65.448V68.136C1036.63 68.584 1036.57 68.648 1036.12 68.648C1035.74 68.648 1034.58 68.52 1030.49 68.52V81.064C1032.41 80.232 1034.52 79.272 1036.5 78.248C1036.44 78.952 1036.38 79.72 1036.38 80.616C1036.38 81.896 1036.25 81.96 1035.16 82.472C1033.62 83.24 1032.02 83.944 1030.49 84.648V92.776C1030.49 96.936 1030.62 100.008 1030.62 102.44C1030.62 105.512 1030.1 106.6 1028.95 107.56C1027.74 108.52 1026.39 108.776 1022.49 108.712C1021.27 108.712 1021.14 108.648 1020.89 107.432C1020.63 106.28 1020.25 105.384 1019.74 104.616C1021.14 104.808 1022.3 104.872 1024.34 104.872C1026.2 104.872 1026.78 104.168 1026.78 101.864V86.312C1025.37 86.888 1024.02 87.464 1022.81 87.912C1021.4 88.488 1020.7 88.744 1020.31 89.192C1020.12 89.384 1019.86 89.576 1019.54 89.576C1019.29 89.576 1019.03 89.384 1018.9 89C1018.52 87.976 1018.14 86.76 1017.82 85.352C1019.61 85.032 1021.14 84.648 1023.51 83.816C1024.34 83.56 1025.43 83.112 1026.78 82.6V68.52H1024.92C1020.76 68.52 1019.54 68.648 1019.22 68.648C1018.78 68.648 1018.71 68.584 1018.71 68.136V65.448C1018.71 65 1018.78 64.936 1019.22 64.936C1019.54 64.936 1020.76 65.064 1024.92 65.064H1026.78V59.816C1026.78 55.976 1026.71 54.184 1026.33 52.072C1027.93 52.136 1029.21 52.264 1030.42 52.456C1030.94 52.52 1031.26 52.712 1031.26 52.968C1031.26 53.48 1031 53.736 1030.81 54.184C1030.55 54.888 1030.49 56.104 1030.49 59.752V65.064C1034.58 65.064 1035.74 64.936 1036.12 64.936C1036.57 64.936 1036.63 65 1036.63 65.448ZM1071.96 56.296C1071.96 56.616 1071.64 56.872 1071 56.936C1070.3 57 1069.02 57.384 1067.74 57.768C1059.48 60.072 1051.86 61.352 1041.56 62.248C1040.22 62.376 1040.02 62.376 1039.64 61.16C1039.38 60.328 1038.87 59.56 1038.36 58.984C1049.88 58.344 1057.43 56.872 1063.7 55.208C1066.2 54.504 1067.48 53.864 1068.5 53.16C1069.66 53.928 1070.68 54.696 1071.45 55.4C1071.83 55.72 1071.96 55.976 1071.96 56.296ZM1072.28 64.488C1072.28 64.808 1072.02 65 1071.77 65.192C1071.32 65.576 1070.81 66.344 1070.49 67.048C1069.46 69.352 1067.48 73.192 1064.92 76.904C1064.54 77.48 1064.34 77.736 1064.09 77.736C1063.83 77.736 1063.58 77.544 1063.06 77.224C1062.42 76.84 1061.98 76.648 1061.27 76.456C1064.09 72.36 1066.2 68.136 1067.22 65.384C1067.48 64.744 1067.8 63.528 1067.99 62.312C1069.4 62.76 1070.62 63.208 1071.51 63.656C1072.15 63.976 1072.28 64.168 1072.28 64.488ZM1052.38 65L1053.91 64.424C1054.68 64.104 1054.74 64.168 1055.06 64.616C1056.41 66.984 1057.82 70.44 1058.46 72.936C1058.58 73.448 1058.52 73.512 1057.69 73.832L1056.09 74.408C1055.26 74.728 1055.13 74.728 1054.94 74.152C1054.23 71.464 1053.02 68.072 1051.74 65.768C1051.54 65.384 1051.61 65.32 1052.38 65ZM1040.98 66.984L1042.52 66.28C1043.16 65.96 1043.29 66.024 1043.61 66.472C1045.27 68.904 1046.62 71.656 1047.64 74.408C1047.83 74.92 1047.77 75.112 1046.94 75.432L1045.34 76.072C1044.57 76.392 1044.38 76.392 1044.18 75.816C1043.16 72.68 1042.14 70.44 1040.47 67.944C1040.15 67.496 1040.34 67.304 1040.98 66.984ZM1098.39 55.592H1125.59C1132.06 55.592 1134.36 55.464 1134.74 55.464C1135.19 55.464 1135.26 55.528 1135.26 55.976C1135.26 56.296 1135.13 59.368 1135.13 66.024V94.44C1135.13 97.384 1135.19 100.328 1135.19 103.016C1135.19 105 1134.68 106.408 1133.34 107.432C1132.12 108.328 1130.52 108.712 1125.4 108.712C1124.06 108.712 1124.06 108.712 1123.8 107.432C1123.61 106.344 1123.22 105.384 1122.65 104.488C1124.82 104.68 1126.23 104.744 1128.98 104.744C1130.58 104.744 1131.22 103.912 1131.22 102.184V88.68H1113.3V96.296C1113.3 103.528 1113.43 106.536 1113.43 106.92C1113.43 107.368 1113.37 107.432 1112.92 107.432H1109.85C1109.4 107.432 1109.34 107.368 1109.34 106.92C1109.34 106.536 1109.46 103.528 1109.46 96.296V88.68H1092.31C1091.42 97.96 1089.3 102.632 1085.78 107.752C1085.4 108.264 1085.27 108.52 1085.02 108.52C1084.82 108.52 1084.57 108.328 1084.12 107.88C1083.22 107.176 1082.33 106.664 1081.43 106.28C1086.55 99.816 1088.92 93.224 1088.92 75.624V66.024C1088.92 59.368 1088.79 56.296 1088.79 55.976C1088.79 55.528 1088.86 55.464 1089.3 55.464C1089.69 55.464 1091.93 55.592 1098.39 55.592ZM1131.22 70.44V59.112H1113.3V70.44H1131.22ZM1131.22 85.224V73.896H1113.3V85.224H1131.22ZM1109.46 85.224V73.896H1092.82V75.624C1092.82 79.272 1092.7 82.472 1092.57 85.224H1109.46ZM1109.46 70.44V59.112H1092.82V70.44H1109.46ZM1178.52 80.296H1189.53C1194.9 80.296 1196.7 80.168 1197.02 80.168C1197.46 80.168 1197.53 80.232 1197.53 80.68C1197.53 81.064 1197.4 83.24 1197.4 88.168V95.016C1197.4 98.408 1197.46 101.736 1197.46 103.592C1197.46 105.576 1197.21 106.984 1196.12 107.816C1194.97 108.648 1193.43 109.032 1189.78 108.968C1188.57 108.968 1188.5 108.968 1188.12 107.688C1187.86 106.92 1187.48 106.088 1186.78 105.192C1188.25 105.32 1189.66 105.384 1191.13 105.384C1193.56 105.384 1193.82 104.68 1193.82 103.016V98.472H1172.89V100.904C1172.89 106.728 1173.02 108.712 1173.02 109.032C1173.02 109.416 1172.95 109.48 1172.5 109.48H1169.69C1169.24 109.48 1169.18 109.416 1169.18 109.032C1169.18 108.648 1169.3 106.984 1169.3 101.032V87.848C1169.3 82.92 1169.18 81.064 1169.18 80.68C1169.18 80.232 1169.24 80.168 1169.69 80.168C1170.01 80.168 1171.86 80.296 1178.52 80.296ZM1193.82 95.464V90.92H1172.89V95.464H1193.82ZM1193.82 87.912V83.368H1172.89V87.912H1193.82ZM1203.42 73.768V76.072C1203.42 76.52 1203.35 76.52 1202.97 76.52C1202.65 76.52 1200.54 76.392 1194.26 76.392H1174.74C1168.47 76.392 1166.36 76.52 1166.04 76.52C1165.59 76.52 1165.53 76.52 1165.53 76.072V73.768C1165.53 73.32 1165.59 73.256 1166.04 73.256C1166.36 73.256 1168.47 73.384 1174.74 73.384H1181.27V68.84H1176.92C1171.42 68.84 1169.62 68.968 1169.24 68.968C1168.79 68.968 1168.73 68.904 1168.73 68.456V66.344C1168.73 65.896 1168.79 65.832 1169.24 65.832C1169.62 65.832 1171.42 65.96 1176.92 65.96H1181.27V61.672H1175.9C1170.01 61.672 1168.02 61.8 1167.7 61.8C1167.26 61.8 1167.19 61.736 1167.19 61.288V59.048C1167.19 58.6 1167.26 58.536 1167.7 58.536C1168.02 58.536 1170.01 58.664 1175.9 58.664H1181.27C1181.27 55.464 1181.14 53.544 1180.82 51.624C1182.42 51.688 1183.7 51.752 1184.92 51.944C1185.37 52.008 1185.69 52.264 1185.69 52.52C1185.69 52.904 1185.56 53.224 1185.3 53.8C1184.98 54.568 1184.92 55.656 1184.92 58.664H1192.28C1198.17 58.664 1200.15 58.536 1200.54 58.536C1200.98 58.536 1201.05 58.6 1201.05 59.048V61.288C1201.05 61.736 1200.98 61.8 1200.54 61.8C1200.15 61.8 1198.17 61.672 1192.28 61.672H1184.92V65.96H1190.49C1196.06 65.96 1197.78 65.832 1198.1 65.832C1198.62 65.832 1198.68 65.896 1198.68 66.344V68.456C1198.68 68.904 1198.62 68.968 1198.1 68.968C1197.78 68.968 1196.06 68.84 1190.49 68.84H1184.92V73.384H1194.26C1200.54 73.384 1202.65 73.256 1202.97 73.256C1203.35 73.256 1203.42 73.32 1203.42 73.768ZM1154.46 97.832V60.712C1154.46 56.168 1154.39 54.44 1153.94 51.944C1155.61 52.008 1156.95 52.136 1158.17 52.328C1158.62 52.392 1158.94 52.52 1158.94 52.84C1158.94 53.16 1158.81 53.48 1158.68 53.992C1158.42 54.76 1158.23 56.36 1158.23 60.584V97.768C1158.23 105.384 1158.36 108.712 1158.36 109.032C1158.36 109.48 1158.3 109.544 1157.85 109.544H1154.84C1154.39 109.544 1154.33 109.48 1154.33 109.032C1154.33 108.712 1154.46 105.384 1154.46 97.832ZM1149.46 65.96L1151.13 66.344C1151.83 66.536 1151.9 66.6 1151.83 67.048C1151.45 71.784 1150.68 76.328 1149.14 80.168C1148.95 80.616 1148.82 80.552 1148.18 80.296L1146.65 79.656C1145.75 79.272 1145.69 79.336 1145.94 78.632C1147.42 75.048 1148.18 71.144 1148.5 66.216C1148.5 65.768 1148.63 65.768 1149.46 65.96ZM1160.41 65.128L1161.88 64.68C1162.39 64.552 1162.58 64.552 1162.71 64.872C1163.8 67.688 1164.7 70.888 1165.27 73.64C1165.34 74.088 1165.34 74.216 1164.63 74.472L1163.1 74.984C1162.26 75.24 1162.07 75.24 1162.01 74.792C1161.56 71.592 1160.79 68.712 1159.7 65.96C1159.51 65.448 1159.64 65.384 1160.41 65.128ZM1244.12 75.752H1259.67C1260.5 75.752 1260.89 75.624 1261.14 75.496C1261.46 75.368 1261.66 75.304 1261.91 75.304C1262.3 75.304 1262.62 75.496 1263.64 76.456C1264.6 77.416 1264.79 77.736 1264.79 78.12C1264.79 78.44 1264.66 78.696 1264.41 78.888C1263.96 79.272 1263.77 79.72 1263.32 81.32C1261.72 87.208 1259.99 92.072 1257.56 96.552C1260.5 100.136 1264.15 103.08 1268.7 106.024C1267.99 106.728 1267.48 107.432 1266.97 108.456C1266.65 109.032 1266.46 109.288 1266.2 109.288C1266.07 109.288 1265.82 109.16 1265.43 108.904C1261.66 106.088 1258.39 103.144 1255.58 99.816C1253.66 102.76 1251.42 105.512 1248.6 108.264C1248.15 108.712 1247.96 108.904 1247.77 108.904C1247.51 108.904 1247.32 108.648 1247 108.072C1246.36 107.112 1245.78 106.536 1245.14 106.024C1248.54 103.016 1251.16 100.008 1253.27 96.808C1250.07 92.136 1247.64 86.504 1245.91 79.08H1244.12V95.976C1244.12 104.744 1244.25 108.712 1244.25 109.032C1244.25 109.48 1244.18 109.544 1243.8 109.544H1240.92C1240.41 109.544 1240.34 109.48 1240.34 109.032C1240.34 108.712 1240.47 105.064 1240.47 96.296V68.84C1240.47 60.008 1240.34 56.232 1240.34 55.848C1240.34 55.4 1240.41 55.336 1240.92 55.336C1241.24 55.336 1243.48 55.464 1248.66 55.464H1257.94C1263.13 55.464 1264.79 55.336 1265.18 55.336C1265.62 55.336 1265.82 55.464 1265.82 55.912C1265.69 57 1265.56 58.152 1265.5 59.24C1265.18 62.888 1264.92 65.448 1264.28 67.368C1263.38 70.12 1261.59 71.08 1258.26 71.08C1256.86 71.08 1255.58 71.016 1254.04 70.952C1252.95 70.888 1252.89 70.888 1252.7 69.8C1252.5 68.712 1252.25 67.944 1251.99 67.368C1254.17 67.624 1255.83 67.752 1257.82 67.752C1259.8 67.752 1260.5 67.176 1261.08 65.064C1261.53 63.464 1261.72 61.224 1261.78 58.856H1244.12V75.752ZM1260.18 79.08H1249.18C1250.71 84.904 1252.63 89.512 1255.26 93.416C1257.37 89.32 1258.84 84.712 1260.18 79.08ZM1238.62 84.008V86.376C1238.62 86.824 1238.55 86.888 1238.1 86.888C1237.78 86.888 1235.93 86.76 1230.3 86.76H1227.03V93.992H1229.91C1235.16 93.992 1236.76 93.864 1237.14 93.864C1237.59 93.864 1237.66 93.928 1237.66 94.376V96.744C1237.66 97.192 1237.59 97.256 1237.14 97.256C1236.76 97.256 1235.16 97.128 1229.91 97.128H1227.03V102.376C1227.03 106.92 1227.16 108.84 1227.16 109.16C1227.16 109.608 1227.1 109.608 1226.65 109.608H1223.77C1223.32 109.608 1223.26 109.608 1223.26 109.16C1223.26 108.776 1223.38 106.92 1223.38 102.376V97.128H1219.99C1214.74 97.128 1213.02 97.256 1212.7 97.256C1212.25 97.256 1212.18 97.192 1212.18 96.744V94.376C1212.18 93.928 1212.25 93.864 1212.7 93.864C1213.02 93.864 1214.74 93.992 1219.99 93.992H1223.38V86.76H1218.97C1213.34 86.76 1211.48 86.888 1211.16 86.888C1210.78 86.888 1210.71 86.824 1210.71 86.376V84.008C1210.71 83.56 1210.78 83.496 1211.16 83.496C1211.48 83.496 1213.34 83.624 1218.97 83.624H1227.42C1228.57 81.448 1229.46 79.08 1230.3 76.648C1230.55 75.816 1230.74 74.984 1230.94 73.96C1232.02 74.152 1233.3 74.536 1234.26 74.92C1234.71 75.112 1234.9 75.304 1234.9 75.56C1234.9 75.816 1234.71 76.008 1234.46 76.2C1234.14 76.456 1233.82 77.032 1233.62 77.544C1232.66 79.72 1231.83 81.512 1230.74 83.624C1235.99 83.624 1237.78 83.496 1238.1 83.496C1238.55 83.496 1238.62 83.56 1238.62 84.008ZM1238.55 70.248V72.616C1238.55 73.064 1238.49 73.128 1238.04 73.128C1237.66 73.128 1235.86 73 1230.23 73H1219.03C1213.4 73 1211.54 73.128 1211.22 73.128C1210.84 73.128 1210.78 73.064 1210.78 72.616V70.248C1210.78 69.8 1210.84 69.736 1211.22 69.736C1211.54 69.736 1213.4 69.864 1219.03 69.864H1223.38V63.144H1220.44C1215.26 63.144 1213.66 63.272 1213.27 63.272C1212.82 63.272 1212.76 63.208 1212.76 62.76V60.328C1212.76 59.944 1212.82 59.88 1213.27 59.88C1213.66 59.88 1215.26 60.008 1220.44 60.008H1223.38V58.28C1223.38 55.592 1223.32 53.736 1222.94 51.88C1224.47 51.944 1225.88 52.072 1226.97 52.264C1227.48 52.328 1227.8 52.52 1227.8 52.776C1227.8 53.224 1227.61 53.48 1227.42 53.928C1227.1 54.504 1227.03 55.4 1227.03 57.64V60.008H1229.34C1234.52 60.008 1236.12 59.88 1236.44 59.88C1236.89 59.88 1236.95 59.944 1236.95 60.328V62.76C1236.95 63.208 1236.89 63.272 1236.44 63.272C1236.12 63.272 1234.52 63.144 1229.34 63.144H1227.03V69.864H1230.23C1235.86 69.864 1237.66 69.736 1238.04 69.736C1238.49 69.736 1238.55 69.8 1238.55 70.248ZM1216.28 74.856L1217.94 74.28C1218.46 74.088 1218.58 74.088 1218.84 74.536C1219.93 76.648 1220.76 78.76 1221.53 81.192C1221.66 81.64 1221.59 81.768 1220.89 82.024L1219.42 82.536C1218.65 82.792 1218.46 82.792 1218.33 82.344C1217.62 79.848 1216.79 77.736 1215.83 75.624C1215.58 75.112 1215.7 75.048 1216.28 74.856Z" fill="#E21A0F"/>
</svg>
